<svg height="200px" width="200px" version="1.1" id="Layer_1" xmlns="http://www.w3.org/2000/svg" xmlns:xlink="http://www.w3.org/1999/xlink" viewBox="0 0 512 512" xml:space="preserve" fill="#000000"><g id="SVGRepo_bgCarrier" stroke-width="0"></g><g id="SVGRepo_tracerCarrier" stroke-linecap="round" stroke-linejoin="round"></g><g id="SVGRepo_iconCarrier"> <path style="fill:#C9D2D9;" d="M490.603,193.611V327.67c0,40.888-29.381,74.961-68.146,82.223 C414.971,467.426,365.818,512,306.272,512H138.699c-64.683,0-117.301-52.618-117.301-117.301v-33.515 c0-57.645,42.9-107.581,99.873-116.072h0.671v-0.894h234.603v-55.858h133.5C490.267,190.148,490.603,191.825,490.603,193.611z"></path> <path style="fill:#B7C4CC;" d="M490.603,193.611V327.67c0,40.888-29.381,74.961-68.146,82.223 C414.971,467.426,365.818,512,306.272,512h-67.029V244.218h117.301v-55.858h133.5C490.267,190.148,490.603,191.825,490.603,193.611z "></path> <path style="fill:#F26549;" d="M356.544,244.219H121.942v0.894h-0.671c-19.064,2.841-36.492,10.404-51.324,21.264 c28.283,65.543,93.499,111.562,169.297,111.562c44.523,0,85.407-15.875,117.301-42.254V244.219z"></path> <path style="fill:#D9472B;" d="M356.544,335.685v-91.466H239.243v133.72C283.765,377.94,324.649,362.065,356.544,335.685z"></path> <path style="fill:#FF9F19;" d="M272.758,377.942h-68.142c-18.375,0-35.332,6.016-49.159,16.083v115.233 c4.953,1.637,10.148,2.742,15.645,2.742h135.171c27.721,0,50.272-22.551,50.272-50.272 C356.544,415.526,318.96,377.942,272.758,377.942z"></path> <path style="fill:#EDF0F2;" d="M138.699,377.94c-9.251,0-16.757,7.501-16.757,16.757v100.544c0,9.257,7.506,16.757,16.757,16.757 c27.721,0,50.272-22.551,50.272-50.272v-33.515C188.971,400.49,166.42,377.94,138.699,377.94z"></path> <path style="fill:#F28618;" d="M239.243,512h67.029c27.721,0,50.272-22.551,50.272-50.272c0-46.202-37.584-83.787-83.787-83.787 h-33.515L239.243,512L239.243,512z"></path> <path style="fill:#B7C4CC;" d="M318.84,4.631c-18.139,8.439-70.257,32.688-87.697,40.801c-8.208,3.764-11.874,13.32-8.46,21.596 C377.499,221.843,351.395,195.738,364.686,209.03c11.328,6.838,25.373-1.447,25.373-14.304v-7.72V50.337 C390.059,13.644,352.024-10.617,318.84,4.631z"></path> <path style="fill:#FF99AA;" d="M268.207,65.155l64.596-30.054c11.106-5.105,23.74,2.996,23.74,15.236v103.154L268.207,65.155z"></path> <path style="fill:#CDD9E4;" d="M440.331,243.881h-33.515c-27.721,0-50.272-22.551-50.272-50.272s22.551-50.272,50.272-50.272h33.515 c27.721,0,50.272,22.551,50.272,50.272S468.052,243.881,440.331,243.881z"></path> <path style="fill:#C9D2D9;" d="M88.427,50.337v136.668v7.72c0,12.857,14.045,21.142,25.373,14.304 c13.29-13.292-12.814,12.814,142.003-142.003c3.413-8.276-0.252-17.833-8.46-21.596c-17.44-8.113-69.557-32.362-87.697-40.801 C126.46-10.617,88.427,13.644,88.427,50.337z"></path> <path style="fill:#FFB3BF;" d="M121.942,153.491V50.337c0-12.24,12.634-20.341,23.74-15.236l64.596,30.054L121.942,153.491z"></path> <path style="fill:#EDF0F2;" d="M239.243,344.425c-83.164,0-150.816-67.657-150.816-150.816S156.079,42.793,239.243,42.793 s150.816,67.657,150.816,150.816S322.407,344.425,239.243,344.425z"></path> <path style="fill:#CDD9E4;" d="M390.059,193.609c0-83.159-67.652-150.816-150.816-150.816v301.632 C322.407,344.425,390.059,276.768,390.059,193.609z"></path> <path style="fill:#FF9AAA;" d="M272.758,243.881c-9.24,0-16.757-7.517-16.757-16.757v-16.757c0-9.257-7.506-16.757-16.757-16.757 c-9.251,0-16.757,7.501-16.757,16.757v16.757c0,9.24-7.517,16.757-16.757,16.757c-9.251,0-16.757,7.501-16.757,16.757 s7.506,16.757,16.757,16.757c12.922,0,24.6-5.036,33.515-13.075c8.915,8.039,20.593,13.075,33.515,13.075 c9.251,0,16.757-7.501,16.757-16.757S282.009,243.881,272.758,243.881z"></path> <path style="fill:#FF8095;" d="M272.758,277.396c9.251,0,16.757-7.501,16.757-16.757s-7.506-16.757-16.757-16.757 c-9.24,0-16.757-7.517-16.757-16.757v-16.757c0-9.257-7.506-16.757-16.757-16.757v70.711 C248.157,272.359,259.834,277.396,272.758,277.396z"></path> <path style="fill:#665247;" d="M306.272,176.852h-33.515c-9.251,0-16.757-7.501-16.757-16.757s7.506-16.757,16.757-16.757h33.515 c9.251,0,16.757,7.501,16.757,16.757S315.523,176.852,306.272,176.852z"></path> <path style="fill:#736056;" d="M205.728,176.852h-33.515c-9.251,0-16.757-7.501-16.757-16.757s7.506-16.757,16.757-16.757h33.515 c9.251,0,16.757,7.501,16.757,16.757S214.979,176.852,205.728,176.852z"></path> <g> <path style="fill:#F9A926;" d="M239.243,411.454c-27.721,0-50.272-22.551-50.272-50.272c0-27.721,22.551-50.272,50.272-50.272 c27.721,0,50.272,22.551,50.272,50.272C289.515,388.903,266.964,411.454,239.243,411.454z"></path> <path style="fill:#F9A926;" d="M289.515,361.182c0-27.721-22.551-50.272-50.272-50.272v100.544 C266.964,411.454,289.515,388.903,289.515,361.182z"></path> </g> <path style="fill:#A6673A;" d="M239.243,344.425c-9.24,0-16.757,7.517-16.757,16.757s7.517,16.757,16.757,16.757 c9.24,0,16.757-7.517,16.757-16.757S248.483,344.425,239.243,344.425z"></path> <path style="fill:#99522E;" d="M256,361.182c0-9.24-7.517-16.757-16.757-16.757v33.515C248.483,377.94,256,370.422,256,361.182z"></path> </g></svg>
