<svg xmlns="http://www.w3.org/2000/svg" xmlns:xlink="http://www.w3.org/1999/xlink" version="1.1" id="Layer_1" viewBox="0 0 235.431 235.431" xml:space="preserve" fill="#000000"><g id="SVGRepo_bgCarrier" stroke-width="0"></g><g id="SVGRepo_tracerCarrier" stroke-linecap="round" stroke-linejoin="round"></g><g id="SVGRepo_iconCarrier"> <g> <path style="fill:#B7461D;" d="M89.172,211.888H52.086c-2.761,0-5-2.239-5-5v-37.086c0-2.761,2.239-5,5-5h37.086 c2.761,0,5,2.239,5,5v37.086C94.172,209.649,91.934,211.888,89.172,211.888z"></path> <path style="fill:#B7461D;" d="M42.086,164.802H5c-2.761,0-5-2.239-5-5v-37.086c0-2.761,2.239-5,5-5h37.086c2.761,0,5,2.239,5,5 v37.086C47.086,162.563,44.848,164.802,42.086,164.802z"></path> <path style="fill:#E45527;" d="M136.259,164.802H99.172c-2.761,0-5-2.239-5-5v-37.086c0-2.761,2.239-5,5-5h37.086 c2.761,0,5,2.239,5,5v37.086C141.259,162.563,139.02,164.802,136.259,164.802z"></path> <path style="fill:#B7461D;" d="M117.716,164.802H99.172c-2.761,0-5-2.239-5-5v-37.086c0-2.761,2.239-5,5-5h18.543V164.802z"></path> <path style="fill:#E45527;" d="M183.345,117.716h-37.086c-2.761,0-5-2.239-5-5V75.629c0-2.761,2.239-5,5-5h37.086 c2.761,0,5,2.239,5,5v37.086C188.345,115.477,186.106,117.716,183.345,117.716z"></path> <path style="fill:#E45527;" d="M230.431,70.629h-37.086c-2.761,0-5-2.239-5-5V28.543c0-2.761,2.239-5,5-5h37.086 c2.761,0,5,2.239,5,5v37.086C235.431,68.391,233.193,70.629,230.431,70.629z"></path> </g> </g></svg>
